#Comment line ignore any data following # character 
#Hierarchical Translation and Rotation (.htr) file 
[Header]	
#Header keywords are followed by a single value 
FileType HTR		#Single word string
DataType HTRS		#Translation followed by rotation and scale data
FileVersion 1		#integer
NumSegments 84		#integer
NumFrames 2		#integer
DataFrameRate 30		#integer, data frame rate in this file
EulerRotationOrder ZYX
CalibrationUnits mm
RotationUnits Degrees
GlobalAxisofGravity Y
BoneLengthAxis Y
ScaleFactor 1.00
[SegmentNames&Hierarchy]
#CHILD	PARENT
MASTER GLOBAL
root MASTER
chest root
L_mid_tent01 root
R_mid_tent01 root
spine01 root
Bip01_Neck chest
L_humerus chest
R_humerus chest
weapon_bone chest
Bip01_Head Bip01_Neck
eye_left_bone Bip01_Head
eye_right_bone Bip01_Head
L_forearm L_humerus
L_front_hand L_forearm
L_weapon_bone L_forearm
L_front_hand01_01 L_front_hand
L_front_hand02_01 L_front_hand
L_front_hand03_01 L_front_hand
L_front_hand01_02 L_front_hand01_01
L_front_hand02_02 L_front_hand02_01
L_front_hand03_02 L_front_hand03_01
R_forearm R_humerus
R_front_hand R_forearm
R_weapon_bone R_forearm
R_front_hand01_01 R_front_hand
R_front_hand02_01 R_front_hand
R_front_hand03_01 R_front_hand
R_front_hand01_02 R_front_hand01_01
R_front_hand02_02 R_front_hand02_01
R_front_hand03_02 R_front_hand03_01
null_rope01_connect L_mid_tent01
Rope1_Seg01 null_rope01_connect
Rope1_Seg02 Rope1_Seg01
Rope1_Seg03 Rope1_Seg02
Rope1_Seg04 Rope1_Seg03
Rope1_Seg05 Rope1_Seg04
Rope1_Seg06 Rope1_Seg05
Rope1_Seg07 Rope1_Seg06
Rope1_Seg09 Rope1_Seg07
L_mid_hand01 Rope1_Seg09
L_mid_hand02 Rope1_Seg09
L_mid_hand03 Rope1_Seg09
null_rope02_connect R_mid_tent01
Rope2_Seg01 null_rope02_connect
Rope2_Seg02 Rope2_Seg01
Rope2_Seg03 Rope2_Seg02
Rope2_Seg04 Rope2_Seg03
Rope2_Seg05 Rope2_Seg04
Rope2_Seg06 Rope2_Seg05
Rope2_Seg07 Rope2_Seg06
Rope2_Seg09 Rope2_Seg07
R_mid_hand01 Rope2_Seg09
R_mid_hand02 Rope2_Seg09
R_mid_hand03 Rope2_Seg09
spine02 spine01
spine03 spine02
pelvis spine03
null_rope03_connect pelvis
null_rope04_connect pelvis
Rope3_Seg01 null_rope03_connect
Rope3_Seg02 Rope3_Seg01
Rope3_Seg03 Rope3_Seg02
Rope3_Seg04 Rope3_Seg03
Rope3_Seg05 Rope3_Seg04
Rope3_Seg06 Rope3_Seg05
Rope3_Seg07 Rope3_Seg06
Rope3_Seg08 Rope3_Seg07
Rope3_Seg09 Rope3_Seg08
R_rear_hand01 Rope3_Seg09
R_rear_hand02 Rope3_Seg09
R_rear_hand03 Rope3_Seg09
Rope4_Seg01 null_rope04_connect
Rope4_Seg02 Rope4_Seg01
Rope4_Seg03 Rope4_Seg02
Rope4_Seg04 Rope4_Seg03
Rope4_Seg05 Rope4_Seg04
Rope4_Seg06 Rope4_Seg05
Rope4_Seg07 Rope4_Seg06
Rope4_Seg08 Rope4_Seg07
Rope4_Seg09 Rope4_Seg08
L_rear_hand01 Rope4_Seg09
L_rear_hand02 Rope4_Seg09
L_rear_hand03 Rope4_Seg09
[BasePosition]
#SegmentName Tx, Ty, Tz, Rx, Ry, Rz, BoneLength
MASTER 0.000000 0.000000 0.000000 -90.000000 0.000000 0.000000 10.000000 
root 0.000000 0.000000 0.000000 0.000000 0.000000 0.000000 10.000000 
chest 0.000000 0.000000 0.000000 0.000000 0.000000 0.000000 10.000000 
L_mid_tent01 0.000000 0.000000 0.000000 0.000000 0.000000 0.000000 10.000000 
R_mid_tent01 0.000000 0.000000 0.000000 0.000000 0.000000 0.000000 10.000000 
spine01 0.000000 0.000000 0.000000 0.000000 0.000000 0.000000 10.000000 
Bip01_Neck 0.000000 0.000000 0.000000 0.000000 0.000000 0.000000 10.000000 
L_humerus 0.000000 0.000000 0.000000 0.000000 0.000000 0.000000 10.000000 
R_humerus 0.000000 0.000000 0.000000 0.000000 0.000000 0.000000 10.000000 
weapon_bone 0.000000 0.000000 0.000000 0.000000 0.000000 0.000000 10.000000 
Bip01_Head 0.000000 0.000000 0.000000 0.000000 0.000000 0.000000 10.000000 
eye_left_bone 0.000000 0.000000 0.000000 0.000000 0.000000 0.000000 10.000000 
eye_right_bone 0.000000 0.000000 0.000000 0.000000 0.000000 0.000000 10.000000 
L_forearm 0.000000 0.000000 0.000000 0.000000 0.000000 0.000000 10.000000 
L_front_hand 0.000000 0.000000 0.000000 0.000000 0.000000 0.000000 10.000000 
L_weapon_bone 0.000000 0.000000 0.000000 0.000000 0.000000 0.000000 10.000000 
L_front_hand01_01 0.000000 0.000000 0.000000 0.000000 0.000000 0.000000 10.000000 
L_front_hand02_01 0.000000 0.000000 0.000000 0.000000 0.000000 0.000000 10.000000 
L_front_hand03_01 0.000000 0.000000 0.000000 0.000000 0.000000 0.000000 10.000000 
L_front_hand01_02 0.000000 0.000000 0.000000 0.000000 0.000000 0.000000 10.000000 
L_front_hand02_02 0.000000 0.000000 0.000000 0.000000 0.000000 0.000000 10.000000 
L_front_hand03_02 0.000000 0.000000 0.000000 0.000000 0.000000 0.000000 10.000000 
R_forearm 0.000000 0.000000 0.000000 0.000000 0.000000 0.000000 10.000000 
R_front_hand 0.000000 0.000000 0.000000 0.000000 0.000000 0.000000 10.000000 
R_weapon_bone 0.000000 0.000000 0.000000 0.000000 0.000000 0.000000 10.000000 
R_front_hand01_01 0.000000 0.000000 0.000000 0.000000 0.000000 0.000000 10.000000 
R_front_hand02_01 0.000000 0.000000 0.000000 0.000000 0.000000 0.000000 10.000000 
R_front_hand03_01 0.000000 0.000000 0.000000 0.000000 0.000000 0.000000 10.000000 
R_front_hand01_02 0.000000 0.000000 0.000000 0.000000 0.000000 0.000000 10.000000 
R_front_hand02_02 0.000000 0.000000 0.000000 0.000000 0.000000 0.000000 10.000000 
R_front_hand03_02 0.000000 0.000000 0.000000 0.000000 0.000000 0.000000 10.000000 
null_rope01_connect 0.000000 0.000000 0.000000 0.000000 0.000000 0.000000 10.000000 
Rope1_Seg01 0.000000 0.000000 0.000000 0.000000 0.000000 0.000000 10.000000 
Rope1_Seg02 0.000000 0.000000 0.000000 0.000000 0.000000 0.000000 10.000000 
Rope1_Seg03 0.000000 0.000000 0.000000 0.000000 0.000000 0.000000 10.000000 
Rope1_Seg04 0.000000 0.000000 0.000000 0.000000 0.000000 0.000000 10.000000 
Rope1_Seg05 0.000000 0.000000 0.000000 0.000000 0.000000 0.000000 10.000000 
Rope1_Seg06 0.000000 0.000000 0.000000 0.000000 0.000000 0.000000 10.000000 
Rope1_Seg07 0.000000 0.000000 0.000000 0.000000 0.000000 0.000000 10.000000 
Rope1_Seg09 0.000000 0.000000 0.000000 0.000000 0.000000 0.000000 10.000000 
L_mid_hand01 0.000000 0.000000 0.000000 0.000000 0.000000 0.000000 10.000000 
L_mid_hand02 0.000000 0.000000 0.000000 0.000000 0.000000 0.000000 10.000000 
L_mid_hand03 0.000000 0.000000 0.000000 0.000000 0.000000 0.000000 10.000000 
null_rope02_connect 0.000000 0.000000 0.000000 0.000000 0.000000 0.000000 10.000000 
Rope2_Seg01 0.000000 0.000000 0.000000 0.000000 0.000000 0.000000 10.000000 
Rope2_Seg02 0.000000 0.000000 0.000000 0.000000 0.000000 0.000000 10.000000 
Rope2_Seg03 0.000000 0.000000 0.000000 0.000000 0.000000 0.000000 10.000000 
Rope2_Seg04 0.000000 0.000000 0.000000 0.000000 0.000000 0.000000 10.000000 
Rope2_Seg05 0.000000 0.000000 0.000000 0.000000 0.000000 0.000000 10.000000 
Rope2_Seg06 0.000000 0.000000 0.000000 0.000000 0.000000 0.000000 10.000000 
Rope2_Seg07 0.000000 0.000000 0.000000 0.000000 0.000000 0.000000 10.000000 
Rope2_Seg09 0.000000 0.000000 0.000000 0.000000 0.000000 0.000000 10.000000 
R_mid_hand01 0.000000 0.000000 0.000000 0.000000 0.000000 0.000000 10.000000 
R_mid_hand02 0.000000 0.000000 0.000000 0.000000 0.000000 0.000000 10.000000 
R_mid_hand03 0.000000 0.000000 0.000000 0.000000 0.000000 0.000000 10.000000 
spine02 0.000000 0.000000 0.000000 0.000000 0.000000 0.000000 10.000000 
spine03 0.000000 0.000000 0.000000 0.000000 0.000000 0.000000 10.000000 
pelvis 0.000000 0.000000 0.000000 0.000000 0.000000 0.000000 10.000000 
null_rope03_connect 0.000000 0.000000 0.000000 0.000000 0.000000 0.000000 10.000000 
null_rope04_connect 0.000000 0.000000 0.000000 0.000000 0.000000 0.000000 10.000000 
Rope3_Seg01 0.000000 0.000000 0.000000 0.000000 0.000000 0.000000 10.000000 
Rope3_Seg02 0.000000 0.000000 0.000000 0.000000 0.000000 0.000000 10.000000 
Rope3_Seg03 0.000000 0.000000 0.000000 0.000000 0.000000 0.000000 10.000000 
Rope3_Seg04 0.000000 0.000000 0.000000 0.000000 0.000000 0.000000 10.000000 
Rope3_Seg05 0.000000 0.000000 0.000000 0.000000 0.000000 0.000000 10.000000 
Rope3_Seg06 0.000000 0.000000 0.000000 0.000000 0.000000 0.000000 10.000000 
Rope3_Seg07 0.000000 0.000000 0.000000 0.000000 0.000000 0.000000 10.000000 
Rope3_Seg08 0.000000 0.000000 0.000000 0.000000 0.000000 0.000000 10.000000 
Rope3_Seg09 0.000000 0.000000 0.000000 0.000000 0.000000 0.000000 10.000000 
R_rear_hand01 0.000000 0.000000 0.000000 0.000000 0.000000 0.000000 10.000000 
R_rear_hand02 0.000000 0.000000 0.000000 0.000000 0.000000 0.000000 10.000000 
R_rear_hand03 0.000000 0.000000 0.000000 0.000000 0.000000 0.000000 10.000000 
Rope4_Seg01 0.000000 0.000000 0.000000 0.000000 0.000000 0.000000 10.000000 
Rope4_Seg02 0.000000 0.000000 0.000000 0.000000 0.000000 0.000000 10.000000 
Rope4_Seg03 0.000000 0.000000 0.000000 0.000000 0.000000 0.000000 10.000000 
Rope4_Seg04 0.000000 0.000000 0.000000 0.000000 0.000000 0.000000 10.000000 
Rope4_Seg05 0.000000 0.000000 0.000000 0.000000 0.000000 0.000000 10.000000 
Rope4_Seg06 0.000000 0.000000 0.000000 0.000000 0.000000 0.000000 10.000000 
Rope4_Seg07 0.000000 0.000000 0.000000 0.000000 0.000000 0.000000 10.000000 
Rope4_Seg08 0.000000 0.000000 0.000000 0.000000 0.000000 0.000000 10.000000 
Rope4_Seg09 0.000000 0.000000 0.000000 0.000000 0.000000 0.000000 10.000000 
L_rear_hand01 0.000000 0.000000 0.000000 0.000000 0.000000 0.000000 10.000000 
L_rear_hand02 0.000000 0.000000 0.000000 0.000000 0.000000 0.000000 10.000000 
L_rear_hand03 0.000000 0.000000 0.000000 0.000000 0.000000 0.000000 10.000000 
#Beginning of Data. Separated by tabs
#Fr	Tx	Ty	Tz	Rx	Ry	Rz	SF
[MASTER]
1 0.000010 0.000936 0.000000 0.001660 0.001660 0.001660 0.000937
2 -0.000008 122.744049 0.000000 0.001660 0.001660 0.001660 122.744049
[root]
1 -85.390648 181.245804 1503.616333 -90.214226 -24.357962 -96.185181 1516.906006
2 -107.438683 188.990799 1495.367676 -88.289047 -24.357763 -96.185608 1511.087402
[chest]
1 -84.512650 -34.090519 0.000000 -2.164627 0.132507 171.891541 91.129311
2 -84.512650 -34.090519 0.000000 -2.237766 -0.530529 172.226532 91.129311
[L_mid_tent01]
1 27.299500 22.177427 -249.917984 11.517386 37.577393 81.327400 252.380859
2 27.312670 22.169878 -250.002625 11.697239 37.584610 81.542908 252.465424
[R_mid_tent01]
1 23.228794 24.509907 226.238495 179.453613 -31.441008 54.638378 228.744751
2 23.228794 24.509907 226.238495 177.006378 -29.566250 56.287071 228.744751
[spine01]
1 -0.361383 -0.195265 0.000000 0.001869 0.001420 15.534139 0.410763
2 -0.361383 -0.195265 0.000000 0.001869 0.001420 15.534141 0.410763
[Bip01_Neck]
1 165.484543 71.581718 0.000119 175.896118 1.177290 24.871183 180.302734
2 165.484543 71.581718 0.000119 175.896118 1.177290 24.871183 180.302734
[L_humerus]
1 -13.983130 -135.272980 -120.471481 -176.821167 31.304117 -99.540123 181.680161
2 -13.983130 -135.272980 -120.471481 -177.561752 31.882088 -99.202812 181.680161
[R_humerus]
1 -13.983309 -135.273102 125.287651 -166.521591 -28.194378 -106.603188 184.909012
2 -13.983309 -135.273102 125.287651 -165.809525 -28.703371 -106.338379 184.909012
[weapon_bone]
1 235.964890 -300.705902 0.000000 0.000000 -89.951546 -128.212341 382.234833
2 235.964890 -300.705902 0.000000 0.000000 -89.951546 -128.212341 382.234833
[Bip01_Head]
1 186.019958 185.149979 15.270430 1.072240 4.616635 -50.552666 262.901367
2 185.587814 184.964279 15.437489 0.288394 4.618585 -50.554733 262.474640
[eye_left_bone]
1 -24.626970 125.451866 -64.772606 0.000000 -90.000000 -99.840431 143.318359
2 -24.626970 125.451866 -64.772606 0.000000 -90.000000 -99.840431 143.318359
[eye_right_bone]
1 -24.626970 125.451866 64.327362 0.000000 -89.972023 80.159393 143.117676
2 -24.626970 125.451866 64.327362 0.000000 -89.960434 80.159386 143.117676
[L_forearm]
1 322.776093 0.000000 -0.000119 0.000340 0.002322 -73.348740 322.776093
2 322.776093 0.000000 -0.000119 0.000329 0.002324 -73.879959 322.776093
[L_front_hand]
1 241.149185 -0.042021 -3.300071 -178.667953 -1.835447 -27.422342 241.171753
2 241.149185 -0.042021 -3.300071 -178.659958 -1.831955 -27.621058 241.171753
[L_weapon_bone]
1 156.183838 0.000000 0.000000 0.000014 0.000007 0.000001 156.183838
2 156.183838 0.000000 0.000000 0.000014 0.000007 0.000001 156.183838
[L_front_hand01_01]
1 86.095154 20.947098 -0.655860 -0.366594 -0.477154 75.385574 88.609184
2 86.095154 20.947098 -0.655860 -0.366594 -0.477154 75.385574 88.609184
[L_front_hand02_01]
1 86.935165 -11.437475 24.513514 154.403519 -59.888931 -61.371990 91.046425
2 86.935165 -11.437475 24.513514 154.403519 -59.888931 -61.371990 91.046425
[L_front_hand03_01]
1 86.637497 -14.123976 -20.424902 -153.913849 58.118122 -62.702866 90.126129
2 86.637497 -14.123976 -20.424902 -153.913849 58.118122 -62.702866 90.126129
[L_front_hand01_02]
1 71.020905 -0.000179 0.000030 0.000334 -0.002323 -106.379684 71.020905
2 71.020905 -0.000179 0.000030 0.000334 -0.002323 -106.379684 71.020905
[L_front_hand02_02]
1 71.020927 -0.000119 0.000060 0.000334 -0.002323 -106.379684 71.020927
2 71.020927 -0.000119 0.000060 0.000334 -0.002323 -106.379684 71.020927
[L_front_hand03_02]
1 71.020905 -0.000060 0.000060 0.000334 -0.002323 -106.379684 71.020905
2 71.020905 -0.000060 0.000060 0.000334 -0.002323 -106.379684 71.020905
[R_forearm]
1 322.776428 -0.000060 0.000030 0.167080 -0.129903 -53.527332 322.776428
2 322.776428 -0.000060 0.000030 0.167476 -0.129393 -53.876564 322.776428
[R_front_hand]
1 238.847015 -0.006795 2.210259 -1.531693 0.790216 -51.443054 238.857239
2 238.847015 -0.006795 2.210259 -1.423247 0.793047 -51.441666 238.857239
[R_weapon_bone]
1 155.664093 0.002503 -0.000030 0.003487 0.001180 -90.988930 155.664078
2 155.664093 0.002503 -0.000030 0.003487 0.001180 -90.988930 155.664078
[R_front_hand01_01]
1 87.624611 14.231146 22.918642 -154.633499 -59.950619 61.746044 91.683487
2 87.624611 14.231146 22.918642 -154.633484 -59.950607 61.746025 91.683487
[R_front_hand02_01]
1 89.356956 14.367283 -19.491137 154.602661 58.302849 63.744389 92.579636
2 89.356956 14.367283 -19.491137 154.602661 58.302849 63.744381 92.579636
[R_front_hand03_01]
1 87.286232 -22.307278 -0.143439 0.162155 -0.423168 -75.767921 90.091743
2 87.286232 -22.307278 -0.143439 0.162155 -0.423168 -75.767921 90.091743
[R_front_hand01_02]
1 71.020905 0.000060 0.000119 0.002323 -0.000334 106.381714 71.020905
2 71.020905 0.000060 0.000119 0.002323 -0.000334 106.381714 71.020905
[R_front_hand02_02]
1 71.020844 -0.000030 -0.000119 0.002323 -0.000334 106.381714 71.020836
2 71.020844 -0.000030 -0.000119 0.002323 -0.000334 106.381714 71.020836
[R_front_hand03_02]
1 71.020905 0.000000 0.000030 0.002323 -0.000334 106.381714 71.020905
2 71.020905 0.000000 0.000030 0.002323 -0.000334 106.381714 71.020905
[null_rope01_connect]
1 328.732483 0.000000 -0.000238 -124.475021 -45.784058 160.070984 328.732483
2 328.732483 0.000000 -0.000238 -123.186264 -47.352276 158.412918 328.732483
[Rope1_Seg01]
1 5.177041 -5.832834 -1.784819 16.914490 36.303127 -152.025391 8.000580
2 5.298615 -5.774460 -1.609268 21.320761 35.849392 -146.992859 8.000590
[Rope1_Seg02]
1 139.999863 -0.000179 0.000000 -0.997171 6.081063 -9.427583 139.999863
2 139.999863 -0.000179 0.000000 -1.032677 6.024325 -9.249859 139.999863
[Rope1_Seg03]
1 139.999924 0.000060 -0.000060 -2.512300 13.643822 -21.524359 139.999924
2 139.999924 0.000060 -0.000060 -2.713620 13.834409 -21.583538 139.999924
[Rope1_Seg04]
1 139.999924 -0.000060 -0.000119 -0.711893 20.823317 -36.457520 139.999924
2 139.999924 -0.000060 -0.000119 -1.802075 21.698299 -37.594982 139.999924
[Rope1_Seg05]
1 139.999832 0.000119 -0.000060 15.459321 9.995522 -19.101301 139.999832
2 139.999832 0.000119 -0.000060 13.550690 10.324215 -19.040876 139.999832
[Rope1_Seg06]
1 139.999954 0.000119 -0.000060 73.392632 4.022352 -14.559649 139.999954
2 139.999954 0.000119 -0.000060 68.217590 4.680513 -14.344902 139.999954
[Rope1_Seg07]
1 139.999985 0.000060 0.000000 52.684837 -10.344259 -6.243367 139.999985
2 139.999985 0.000060 0.000000 61.028923 -9.693491 -7.866611 139.999985
[Rope1_Seg09]
1 121.602913 0.000119 -0.000089 -89.793175 -1.359789 0.847147 121.602913
2 121.602913 0.000119 -0.000089 -89.793175 -1.359789 0.847147 121.602913
[L_mid_hand01]
1 103.859421 1.038730 8.195221 106.857780 -31.238718 -9.463764 104.187431
2 103.859421 1.038730 8.195221 108.613602 -30.216347 -13.164033 104.187431
[L_mid_hand02]
1 105.572853 -4.139662 -10.864139 -142.330658 25.752552 -28.775375 106.211075
2 105.572853 -4.139662 -10.864139 -142.704300 24.473228 -29.858992 106.211075
[L_mid_hand03]
1 104.641464 17.579376 -3.913581 -16.122049 9.732354 34.224323 106.179977
2 104.641464 17.579376 -3.913581 -16.368958 10.897337 33.883297 106.179977
[null_rope02_connect]
1 328.732849 0.000179 -0.000119 -125.045616 63.980457 -5.714870 328.732849
2 328.732849 0.000179 -0.000119 -123.561974 64.292473 -3.500770 328.732849
[Rope2_Seg01]
1 0.000057 0.000153 0.000000 74.024605 45.194199 10.018004 0.000163
2 0.000057 0.000154 0.000000 74.245399 36.676094 8.295580 0.000164
[Rope2_Seg02]
1 139.999741 -0.000060 -0.000119 0.639152 6.356565 1.666864 139.999756
2 139.999741 -0.000060 -0.000119 0.923421 6.684921 0.937461 139.999756
[Rope2_Seg03]
1 140.000107 0.000030 0.000000 0.339109 10.873766 2.761657 140.000107
2 140.000107 0.000030 0.000000 0.766633 11.426828 1.435344 140.000107
[Rope2_Seg04]
1 139.999802 0.000000 -0.000060 -2.066579 21.918020 7.245253 139.999802
2 139.999802 0.000000 -0.000060 -1.225255 22.903864 3.836899 139.999802
[Rope2_Seg05]
1 139.999985 -0.000060 0.000119 -10.937067 27.897270 9.449970 139.999985
2 139.999985 -0.000060 0.000119 -9.175271 28.450640 4.455658 139.999985
[Rope2_Seg06]
1 139.999893 -0.000030 -0.000119 -9.358717 15.885722 1.138101 139.999893
2 139.999893 -0.000030 -0.000119 -8.646668 16.054039 -0.138089 139.999893
[Rope2_Seg07]
1 139.999893 0.000060 -0.000060 -12.965425 10.723725 3.259952 139.999893
2 139.999893 0.000060 -0.000060 -13.058643 11.330997 2.132557 139.999893
[Rope2_Seg09]
1 121.338966 0.000089 -0.000060 33.793236 -1.359788 -0.847141 121.338966
2 121.338966 0.000089 -0.000060 33.793236 -1.359788 -0.847141 121.338966
[R_mid_hand01]
1 104.680779 11.144459 -10.335981 -41.523792 25.424656 28.595957 105.778534
2 104.680779 11.144459 -10.335981 -41.523792 25.424656 28.595957 105.778534
[R_mid_hand02]
1 104.070427 2.443552 8.231699 72.847389 -32.746803 10.013901 104.424065
2 104.070427 2.443552 8.231699 72.847389 -32.746803 10.013901 104.424065
[R_mid_hand03]
1 106.028137 -11.221827 -5.996406 -167.901306 10.259192 -37.009720 106.788818
2 106.028137 -11.221827 -5.996406 -167.901306 10.259192 -37.009720 106.788818
[spine02]
1 129.756927 0.001550 0.000119 -0.245322 -4.052059 -4.355547 129.756927
2 129.756927 0.001550 0.000119 -0.245322 -4.052060 -4.355547 129.756927
[spine03]
1 78.613846 0.087372 -4.898873 0.369659 4.260734 -4.885720 78.766380
2 78.613846 0.087372 -4.898873 0.369659 4.260734 -4.885720 78.766380
[pelvis]
1 169.435242 0.051022 0.000000 -0.010007 -0.191417 -1.897554 169.435257
2 169.435242 0.051022 0.000000 -0.010007 -0.191417 -1.897554 169.435257
[null_rope03_connect]
1 -1.257226 -2.466202 137.391083 -87.736153 -83.851524 -162.287140 137.418976
2 -1.257226 -2.466202 137.391083 -69.466988 -84.290787 179.536484 137.418976
[null_rope04_connect]
1 -1.259640 -2.480268 -137.844437 -87.736153 -83.851524 -162.287140 137.872513
2 -1.259640 -2.480268 -137.844437 -69.466988 -84.290787 179.536484 137.872513
[Rope3_Seg01]
1 0.000000 0.000000 0.000000 -53.942623 -51.638676 9.519481 0.000000
2 0.000000 0.000000 0.000000 -53.471531 -52.353275 9.045004 0.000000
[Rope3_Seg02]
1 139.999924 -0.000119 0.000060 -1.784709 -2.171039 4.147467 139.999924
2 139.999924 -0.000119 0.000060 -1.697144 -2.044544 4.213104 139.999924
[Rope3_Seg03]
1 139.999924 -0.000119 0.000119 -3.406033 -3.632065 6.479128 139.999924
2 139.999924 -0.000119 0.000119 -3.268253 -3.423903 6.577302 139.999924
[Rope3_Seg04]
1 139.999924 0.000119 0.000000 -7.944094 -7.128539 11.296968 139.999924
2 139.999924 0.000119 0.000000 -7.722941 -6.714729 11.465797 139.999924
[Rope3_Seg05]
1 139.999924 -0.000238 0.000060 -26.345604 -20.016956 25.306883 139.999924
2 139.999924 -0.000238 0.000060 -26.408436 -18.968712 25.775440 139.999924
[Rope3_Seg06]
1 139.999893 -0.000119 -0.000060 -18.445749 -22.385071 13.055133 139.999893
2 139.999893 -0.000119 -0.000060 -19.485231 -21.865776 13.748461 139.999893
[Rope3_Seg07]
1 139.999771 0.000060 -0.000119 -2.929697 -5.577401 2.522089 139.999771
2 139.999771 0.000060 -0.000119 -3.142406 -5.437616 2.583087 139.999771
[Rope3_Seg08]
1 139.999985 -0.000060 0.000000 -2.965014 -6.577499 2.129593 139.999985
2 139.999985 -0.000060 0.000000 -3.223798 -6.457437 2.190650 139.999985
[Rope3_Seg09]
1 90.185997 -0.000179 -0.000060 89.793228 -1.359877 -0.847183 90.185997
2 90.185997 -0.000179 -0.000060 89.793228 -1.359877 -0.847183 90.185997
[R_rear_hand01]
1 103.366196 -6.073594 -10.757982 -161.551193 16.666374 -30.088671 104.101845
2 103.366196 -6.073594 -10.757982 -161.551193 16.666374 -30.088671 104.101845
[R_rear_hand02]
1 100.509819 12.039542 -7.992327 -34.280552 19.289745 28.875523 101.543350
2 100.509819 12.039542 -7.992327 -34.280552 19.289745 28.875523 101.543350
[R_rear_hand03]
1 101.539970 5.215704 5.435467 83.366440 -30.933914 7.284830 101.819031
2 101.539970 5.215704 5.435467 83.366440 -30.933914 7.284830 101.819031
[Rope4_Seg01]
1 -0.000038 -0.000076 0.000153 -52.392036 -24.141645 -174.349991 0.000175
2 -0.000038 -0.000076 0.000152 -53.620216 -22.215002 -174.088913 0.000174
[Rope4_Seg02]
1 139.999985 0.000060 0.000119 13.475207 8.460975 -10.375848 139.999985
2 139.999985 0.000060 0.000119 14.332401 8.356973 -10.535169 139.999985
[Rope4_Seg03]
1 139.999924 0.000000 -0.000238 18.014719 7.944797 -17.441084 139.999924
2 139.999924 0.000000 -0.000238 18.871889 7.571503 -17.950083 139.999924
[Rope4_Seg04]
1 139.999985 0.000000 0.000119 12.639216 -0.377307 -19.363585 139.999985
2 139.999985 0.000000 0.000119 12.766298 -1.140561 -19.755632 139.999985
[Rope4_Seg05]
1 139.999802 -0.000060 -0.000119 7.171449 -0.496218 -15.502656 139.999802
2 139.999802 -0.000060 -0.000119 6.946403 -1.217082 -15.584286 139.999802
[Rope4_Seg06]
1 139.999924 0.000000 0.000060 6.846394 1.968428 -22.615458 139.999924
2 139.999924 0.000000 0.000060 6.423100 0.953104 -22.950171 139.999924
[Rope4_Seg07]
1 139.999802 0.000000 0.000000 3.109372 -0.843565 -21.677065 139.999802
2 139.999802 0.000000 0.000000 2.504785 -1.615818 -22.111511 139.999802
[Rope4_Seg08]
1 139.999924 0.000000 0.000119 -1.344970 -1.458114 -10.889719 139.999924
2 139.999924 0.000000 0.000119 -1.767157 -1.704191 -11.010624 139.999924
[Rope4_Seg09]
1 90.185791 0.000060 0.000060 -135.617828 2.228885 0.850567 90.185791
2 90.185791 0.000060 0.000060 -135.617828 2.228885 0.850567 90.185791
[L_rear_hand01]
1 101.696655 -8.392275 -7.654577 -34.454281 -18.946800 151.655121 102.329041
2 101.696655 -8.392275 -7.654577 -34.454281 -18.946800 151.655121 102.329041
[L_rear_hand02]
1 102.726799 -1.568258 5.773216 83.407906 30.330435 172.796509 102.900848
2 102.726799 -1.568258 5.773216 83.407906 30.330435 172.796509 102.900848
[L_rear_hand03]
1 104.552910 9.721220 -10.420293 -161.379868 -16.473232 -150.512238 105.519653
2 104.552910 9.721220 -10.420293 -161.379868 -16.473232 -150.512238 105.519653
